<svg width="2297" height="2058" viewBox="0 0 2297 2058" fill="none" xmlns="http://www.w3.org/2000/svg">
<rect width="2297" height="2058" fill="#408708"/>
<path d="M562.165 1316.58L508 1110H576.093L602.402 1258.97H593.735L635.829 1110H681.637L724.04 1260.83H714.755L741.373 1110H809.466L755.301 1316.58H694.327L654.09 1182.47H663.995L623.139 1316.58H562.165ZM780.166 1316.58L856.306 1110H925.018L994.349 1316.58H930.899L867.449 1117.74L900.257 1114.96L837.426 1316.58H780.166ZM827.521 1280.34L838.045 1236.98H928.732L934.613 1280.34H827.521ZM1002.06 1316.58V1110H1052.2L1148.77 1236.36L1129.89 1277.25V1110H1186.22V1316.58H1142.89L1046.01 1195.48L1058.39 1167.3V1316.58H1002.06ZM1210.86 1316.58V1110H1301.55C1337.87 1110 1364.28 1118.78 1380.79 1136.33C1397.5 1153.88 1405.86 1179.58 1405.86 1213.45C1405.86 1247.1 1397.5 1272.7 1380.79 1290.26C1364.28 1307.81 1337.87 1316.58 1301.55 1316.58H1210.86ZM1272.77 1270.12H1293.81C1309.08 1270.12 1320.94 1265.68 1329.41 1256.81C1338.07 1247.72 1342.41 1233.27 1342.41 1213.45C1342.41 1193.42 1338.07 1178.96 1329.41 1170.09C1320.94 1161 1309.08 1156.46 1293.81 1156.46H1272.77V1270.12ZM1421.47 1316.58V1110H1567.87V1156.46H1483.69V1189.91H1555.8V1236.36H1483.38V1270.12H1567.87V1316.58H1421.47ZM1590.98 1316.58V1110H1698.38C1722.94 1110 1742.44 1115.57 1756.88 1126.72C1771.33 1137.87 1778.55 1154.91 1778.55 1177.83C1778.55 1185.67 1777 1193.93 1773.91 1202.61C1770.81 1211.07 1765.96 1218.71 1759.36 1225.52C1752.76 1232.13 1744.29 1236.78 1733.98 1239.46L1725.31 1218.09L1790 1316.58H1710.15L1662.48 1228.62L1689.41 1250.61H1652.89V1316.58H1590.98ZM1652.89 1206.94H1690.65C1696.01 1206.94 1700.76 1205.08 1704.88 1201.37C1709.01 1197.44 1711.07 1190.53 1711.07 1180.62C1711.07 1172.15 1709.01 1166.06 1704.88 1162.34C1700.76 1158.42 1696.01 1156.46 1690.65 1156.46H1652.89V1206.94ZM842.753 1564.35L788.587 1357.77H856.681L882.989 1506.75H874.323L916.417 1357.77H962.225L1004.63 1508.61H995.343L1021.96 1357.77H1090.05L1035.89 1564.35H974.915L934.678 1430.25H944.582L903.727 1564.35H842.753ZM1102.56 1564.35V1357.77H1164.77V1564.35H1102.56ZM1263.53 1569C1253 1569 1243.2 1568.59 1234.12 1567.76C1225.04 1567.14 1216.58 1565.9 1208.74 1564.04C1200.9 1562.19 1193.58 1559.61 1186.77 1556.3V1498.69C1197.7 1507.16 1209.26 1513.25 1221.43 1516.97C1233.81 1520.68 1244.54 1522.54 1253.62 1522.54C1260.22 1522.54 1265.59 1521.51 1269.72 1519.45C1274.05 1517.18 1276.22 1512.84 1276.22 1506.44C1276.22 1502.31 1273.95 1499 1269.41 1496.53C1264.87 1493.84 1258.68 1491.36 1250.84 1489.09C1242.99 1486.82 1234.12 1484.04 1224.22 1480.73C1218.65 1478.87 1213.18 1476.5 1207.81 1473.61C1202.65 1470.72 1198.01 1467.1 1193.89 1462.77C1189.76 1458.22 1186.46 1452.86 1183.98 1446.66C1181.51 1440.26 1180.27 1432.62 1180.27 1423.74C1180.27 1414.04 1182.02 1404.85 1185.53 1396.18C1189.24 1387.51 1194.61 1379.97 1201.62 1373.57C1208.85 1366.96 1217.92 1361.8 1228.86 1358.08C1239.8 1354.37 1252.49 1352.51 1266.93 1352.51C1275.6 1352.51 1283.34 1353.02 1290.15 1354.06C1297.16 1354.88 1303.76 1356.33 1309.95 1358.39C1316.35 1360.25 1322.64 1362.73 1328.83 1365.83V1424.67C1324.29 1420.54 1318.82 1416.62 1312.43 1412.9C1306.24 1409.19 1299.74 1406.09 1292.93 1403.61C1286.33 1400.93 1279.93 1399.38 1273.74 1398.97C1268.99 1398.55 1264.25 1398.76 1259.5 1399.59C1254.96 1400.41 1251.15 1402.17 1248.05 1404.85C1245.16 1407.33 1243.72 1411.04 1243.72 1416C1243.72 1420.54 1245.37 1424.15 1248.67 1426.84C1251.97 1429.32 1256.51 1431.49 1262.29 1433.34C1268.27 1434.99 1274.87 1436.85 1282.1 1438.92C1290.97 1441.4 1298.91 1444.18 1305.93 1447.28C1313.15 1450.38 1319.24 1454.2 1324.19 1458.74C1329.35 1463.28 1333.27 1468.86 1335.95 1475.47C1338.63 1481.87 1339.98 1489.61 1339.98 1498.69C1339.98 1512.53 1336.67 1524.81 1330.07 1535.55C1323.67 1546.08 1314.7 1554.34 1303.14 1560.33C1291.79 1566.11 1278.59 1569 1263.53 1569ZM1355.43 1564.35V1357.77H1501.83V1404.23H1417.65V1437.68H1489.76V1484.14H1417.34V1517.9H1501.83V1564.35H1355.43Z" fill="white"/>
<path d="M1188.16 521.589C1148.42 563.145 1113.75 602.82 1093.97 629.144C1076.83 651.896 1078.15 650.956 1042.17 668.255L1029.74 674.272L998.841 636.665C982.075 615.982 967.005 597.555 965.686 595.862C962.861 592.478 961.542 593.794 883.175 676.716C863.019 697.964 843.427 717.143 839.471 719.212C835.703 721.468 822.705 726.169 810.837 729.741C780.131 739.143 770.712 742.904 760.539 750.425C747.541 760.015 740.948 767.536 712.691 804.39C678.97 848.766 669.928 858.732 647.888 875.467C631.875 887.689 610.777 906.868 572.535 943.911L565 951.056L571.593 949.928C575.173 949.364 599.285 943.723 624.905 937.517L671.624 926.236L683.303 933.193C689.708 937.141 715.705 955.004 741.136 972.68C797.085 1012.17 800.853 1014.42 803.867 1011.41C808.953 1006.34 806.316 957.637 796.897 885.809C796.143 879.98 796.143 879.98 801.983 881.672C805.374 882.612 812.156 883.364 817.43 883.364C825.908 883.364 828.733 884.68 846.064 896.15C856.802 903.108 875.64 915.518 888.262 923.791C900.883 931.876 915.577 942.782 921.04 947.671C926.503 952.56 931.589 956.697 932.343 956.697C936.487 956.697 925.561 925.483 902.955 872.646C892.971 849.142 890.146 840.869 891.087 836.92C893.16 828.835 905.404 808.527 935.169 763.023C967.758 713.383 973.787 703.041 976.801 691.007C977.931 686.118 979.626 681.605 980.38 681.229C982.075 680.289 991.306 698.904 998.465 717.519C1009.96 747.417 1021.26 762.459 1063.46 803.45C1136.36 874.527 1252.78 961.774 1319.47 995.243C1346.03 1008.59 1379.75 1017.24 1379.75 1010.85C1379.75 1004.83 1297.05 929.808 1228.1 873.022C1206.06 854.783 1202.67 851.775 1202.67 849.142C1202.67 848.39 1215.1 852.151 1230.55 857.228C1273.5 871.706 1313.81 882.988 1331.33 885.432C1349.98 888.065 1355.26 886.373 1362.42 875.843C1367.31 868.51 1366.94 860.8 1361.47 854.783C1354.88 847.45 1296.86 819.433 1270.49 810.972C1259.94 807.587 1216.04 780.51 1197.02 765.656C1181.76 753.998 1157.46 727.673 1157.46 722.972C1157.46 721.656 1162.17 713.383 1167.82 704.733C1179.69 686.682 1188.16 667.315 1192.31 649.64C1193.82 643.058 1197.39 632.717 1200.03 626.512C1202.86 620.495 1208.13 607.144 1212.09 596.991L1219.06 578.375L1225.84 586.649C1244.11 609.213 1293.09 688.75 1293.09 696.084C1293.09 720.904 1330.39 762.459 1397.64 813.04C1449.45 851.963 1556.83 917.586 1647.25 965.722C1666.84 976.064 1671.55 976.252 1675.88 967.039C1679.08 960.081 1675.69 954.44 1661.94 944.099C1618.99 911.005 1597.7 892.014 1518.21 815.484C1426.28 727.109 1408.38 708.682 1411.77 706.613C1417.05 703.229 1432.31 704.545 1443.61 709.434C1449.83 711.878 1464.9 715.827 1477.14 717.895C1512.56 724.101 1528.57 733.878 1572.08 775.433C1605.43 807.399 1623.89 821.501 1644.42 830.527C1658.93 836.92 1666.09 835.416 1666.09 826.014C1666.09 824.698 1641.79 803.262 1612.02 778.63C1556.64 732.562 1524.24 701.161 1461.69 632.341C1449.64 618.802 1437.2 605.452 1434.57 602.632L1429.48 597.367L1389.17 614.289C1366.94 623.691 1347.91 631.4 1346.78 631.4C1345.09 631.4 1288.01 568.598 1223.2 495.453L1218.49 490L1188.16 521.589Z" fill="white"/>
</svg>
